# xmcd CD database file
#
# Track frame offsets:
#	150
#	19935
#	45830
#	77362
#	109010
#	126917
#	188827
#	217397
#
# Disc length: 3217 seconds
#
# Revision: 2
# Processed by: cddbd v1.5.2PL0 Copyright (c) Steve Scherf et al.
# Submitted via: CDex 1.51
#
DISCID=650c8f08
DTITLE=Joe Pass - University of Akron Concert
DYEAR=1986
DGENRE=Jazz
TTITLE0=It s a wonderful world
TTITLE1=Body and Soul
TTITLE2=Bridgework
TTITLE3=Tarde
TTITLE4=Time in
TTITLE5=Duke Ellington Medley
TTITLE6=Joy Spring
TTITLE7=I m glad there is you
EXTD=YEAR: 1986
EXTT0=
EXTT1=
EXTT2=
EXTT3=
EXTT4=
EXTT5=A) Isfahan\nB) Prelude to a kiss\nC) Squeeze me\nD) Take the A-Train\nE) Sophisticated Lady\nF) Lush Life\nG) Satin Doll\n
EXTT6=
EXTT7=
PLAYORDER=
